<?xml version="1.0" standalone="no"?>
<!DOCTYPE svg PUBLIC "-//W3C//DTD SVG 20010904//EN"
 "http://www.w3.org/TR/2001/REC-SVG-20010904/DTD/svg10.dtd">
<svg version="1.0" xmlns="http://www.w3.org/2000/svg"
 width="700.000000pt" height="700.000000pt" viewBox="0 0 700.000000 700.000000"
 preserveAspectRatio="xMidYMid meet">
<metadata>
Created by potrace 1.14, written by Peter Selinger 2001-2017
</metadata>
<g transform="translate(0.000000,700.000000) scale(0.100000,-0.100000)"
fill="#000000" stroke="none">
<path d="M1759 6119 c-12 -7 -7 -1924 5 -1979 10 -52 26 -133 32 -166 11 -64
88 -275 134 -369 205 -418 580 -743 1023 -889 59 -20 118 -38 130 -40 12 -2
40 -8 62 -12 22 -4 45 -8 50 -9 7 0 10 -206 10 -598 l0 -599 -435 0 -436 0 1
-282 c1 -154 2 -286 3 -291 1 -7 370 -10 1160 -9 636 1 1160 2 1163 3 3 0 6
131 6 290 l0 289 -396 0 c-218 1 -415 1 -438 1 l-43 1 0 595 0 595 28 5 c302
64 540 172 766 349 351 273 596 703 653 1146 4 36 8 495 8 1020 l0 955 -1738
0 c-957 0 -1743 -3 -1748 -6z m2902 -578 c3 -1 5 -196 5 -435 0 -431 0 -434
-20 -438 -12 -2 -536 -3 -1166 -2 l-1145 0 -1 437 0 436 35 3 c28 2 2269 1
2292 -1z"/>
</g>
</svg>
